<?xml version="1.0" encoding="UTF-8" standalone="no"?>
<svg
   width="240"
   height="240"
   viewBox="0 0 240 240"
   fill="none"
   version="1.1"
   id="svg1"
   sodipodi:docname="app-file-manager.svg"
   inkscape:version="1.4.4 (dcaf3e7d9e, 2026-05-05)"
   xml:space="preserve"
   xmlns:inkscape="http://www.inkscape.org/namespaces/inkscape"
   xmlns:sodipodi="http://sodipodi.sourceforge.net/DTD/sodipodi-0.dtd"
   xmlns:xlink="http://www.w3.org/1999/xlink"
   xmlns="http://www.w3.org/2000/svg"
   xmlns:svg="http://www.w3.org/2000/svg"
   xmlns:rdf="http://www.w3.org/1999/02/22-rdf-syntax-ns#"
   xmlns:cc="http://creativecommons.org/ns#"
   xmlns:dc="http://purl.org/dc/elements/1.1/"><defs
     id="defs1"><linearGradient
       id="linearGradient1"
       inkscape:collect="always"><stop
         style="stop-color:#f59e0b;stop-opacity:1;"
         offset="0"
         id="stop1" /><stop
         style="stop-color:#d97706;stop-opacity:1;"
         offset="1"
         id="stop2" /></linearGradient><linearGradient
       inkscape:collect="always"
       xlink:href="#linearGradient1"
       id="linearGradient2"
       x1="32.231758"
       y1="15.055914"
       x2="202.38034"
       y2="217.8311"
       gradientUnits="userSpaceOnUse" /></defs><sodipodi:namedview
     id="namedview1"
     pagecolor="#ffffff"
     bordercolor="#000000"
     borderopacity="0.25"
     inkscape:showpageshadow="2"
     inkscape:pageopacity="0.0"
     inkscape:pagecheckerboard="0"
     inkscape:deskcolor="#d1d1d1"
     inkscape:zoom="0.81979167"
     inkscape:cx="151.25794"
     inkscape:cy="68.919949"
     inkscape:window-width="1920"
     inkscape:window-height="995"
     inkscape:window-x="0"
     inkscape:window-y="0"
     inkscape:window-maximized="1"
     inkscape:current-layer="svg1" /><metadata
     id="Namorix-Metadata-Block"><rdf:RDF><cc:Work
         rdf:about=""><dc:date>2026</dc:date><dc:creator><cc:Agent><dc:title>Nguyen Danh Nam</dc:title></cc:Agent></dc:creator><dc:rights><cc:Agent><dc:title>Nguyen Danh Nam</dc:title></cc:Agent></dc:rights><dc:description>Official brand asset for the Namorix Ecosystem. Created by Nguyen Danh Nam.</dc:description><cc:license
           rdf:resource="https://creativecommons.org/licenses/by-nc-nd/4.0/" /></cc:Work></rdf:RDF></metadata><path
     id="nmx-bg"
     d="M186 0H54C24.1766 0 0 24.1766 0 54V186C0 215.823 24.1766 240 54 240H186C215.823 240 240 215.823 240 186V54C240 24.1766 215.823 0 186 0Z"
     fill="#1C1C1E"
     style="fill-opacity:1;fill:url(#linearGradient2)" /><g
     style="fill:none;stroke:#ffffff;stroke-width:1.82796153;stroke-dasharray:none;stroke-opacity:1"
     id="g1"
     transform="matrix(6.8551771,0,0,6.8551771,37.737875,37.737865)"><path
       d="M 3,8.2 C 3,7.07989 3,6.51984 3.21799,6.09202 3.40973,5.71569 3.71569,5.40973 4.09202,5.21799 4.51984,5 5.0799,5 6.2,5 h 3.47452 c 0.48918,0 0.73378,0 0.96398,0.05526 0.204,0.04899 0.3991,0.1298 0.5781,0.23946 0.2018,0.12368 0.3748,0.29663 0.7207,0.64254 l 0.1254,0.12548 c 0.3459,0.34591 0.5189,0.51886 0.7207,0.64254 0.179,0.10966 0.3741,0.19047 0.5781,0.23946 C 13.5917,7 13.8363,7 14.3255,7 H 17.8 c 1.1201,0 1.6802,0 2.108,0.21799 0.3763,0.19174 0.6823,0.4977 0.874,0.87403 C 21,8.51984 21,9.0799 21,10.2 v 5.6 c 0,1.1201 0,1.6802 -0.218,2.108 -0.1917,0.3763 -0.4977,0.6823 -0.874,0.874 C 19.4802,19 18.9201,19 17.8,19 H 6.2 C 5.07989,19 4.51984,19 4.09202,18.782 3.71569,18.5903 3.40973,18.2843 3.21799,17.908 3,17.4802 3,16.9201 3,15.8 Z"
       stroke="#000000"
       stroke-width="2"
       stroke-linecap="round"
       stroke-linejoin="round"
       id="path1-5"
       style="stroke:#ffffff;stroke-width:1.82796153;stroke-dasharray:none;stroke-opacity:1" /></g></svg>
