<?xml version="1.0" encoding="UTF-8" standalone="no"?>
<svg
   width="240"
   height="240"
   viewBox="0 0 240 240"
   fill="none"
   version="1.1"
   id="svg1"
   sodipodi:docname="app-unknown.svg"
   inkscape:version="1.4.4 (dcaf3e7d9e, 2026-05-05)"
   xml:space="preserve"
   xmlns:inkscape="http://www.inkscape.org/namespaces/inkscape"
   xmlns:sodipodi="http://sodipodi.sourceforge.net/DTD/sodipodi-0.dtd"
   xmlns:xlink="http://www.w3.org/1999/xlink"
   xmlns="http://www.w3.org/2000/svg"
   xmlns:svg="http://www.w3.org/2000/svg"
   xmlns:rdf="http://www.w3.org/1999/02/22-rdf-syntax-ns#"
   xmlns:cc="http://creativecommons.org/ns#"
   xmlns:dc="http://purl.org/dc/elements/1.1/"><defs
     id="defs1"><linearGradient
       id="linearGradient1"
       inkscape:collect="always"><stop
         style="stop-color:#64748b;stop-opacity:1;"
         offset="0"
         id="stop1" /><stop
         style="stop-color:#475569;stop-opacity:1;"
         offset="1"
         id="stop2" /></linearGradient><linearGradient
       inkscape:collect="always"
       xlink:href="#linearGradient1"
       id="linearGradient2"
       x1="32.231758"
       y1="15.055914"
       x2="202.38034"
       y2="217.8311"
       gradientUnits="userSpaceOnUse" /></defs><sodipodi:namedview
     id="namedview1"
     pagecolor="#ffffff"
     bordercolor="#000000"
     borderopacity="0.25"
     inkscape:showpageshadow="2"
     inkscape:pageopacity="0.0"
     inkscape:pagecheckerboard="0"
     inkscape:deskcolor="#d1d1d1"
     inkscape:zoom="0.81979167"
     inkscape:cx="-67.090216"
     inkscape:cy="162.84625"
     inkscape:window-width="1920"
     inkscape:window-height="1001"
     inkscape:window-x="1920"
     inkscape:window-y="0"
     inkscape:window-maximized="1"
     inkscape:current-layer="svg1" /><metadata
     id="Namorix-Metadata-Block"><rdf:RDF><cc:Work
         rdf:about=""><dc:date>2026</dc:date><dc:creator><cc:Agent><dc:title>Nguyen Danh Nam</dc:title></cc:Agent></dc:creator><dc:rights><cc:Agent><dc:title>Nguyen Danh Nam</dc:title></cc:Agent></dc:rights><dc:description>Official brand asset for the Namorix Ecosystem. Created by Nguyen Danh Nam.</dc:description><cc:license
           rdf:resource="https://creativecommons.org/licenses/by-nc-nd/4.0/" /></cc:Work></rdf:RDF></metadata><path
     id="nmx-bg"
     d="M186 0H54C24.1766 0 0 24.1766 0 54V186C0 215.823 24.1766 240 54 240H186C215.823 240 240 215.823 240 186V54C240 24.1766 215.823 0 186 0Z"
     fill="#1C1C1E"
     style="fill-opacity:1;fill:url(#linearGradient2)" /><g
     style="fill:#ffffff;fill-opacity:1"
     id="g1"
     transform="matrix(5.5972222,0,0,5.5972222,19.25,19.25)"><circle
       class="clr-i-outline clr-i-outline-path-1"
       cx="17.58"
       cy="26.23"
       r="1.4"
       id="circle1-5"
       style="fill:#ffffff;fill-opacity:1" /><path
       class="clr-i-outline clr-i-outline-path-2"
       d="M 24.7,13 A 5.18,5.18 0 0 0 22.54,9.44 7.26,7.26 0 0 0 16.83,8.35 11.34,11.34 0 0 0 12,10.44 1.0026465,1.0026465 0 1 0 13.26,12 a 9.32,9.32 0 0 1 3.94,-1.72 5.29,5.29 0 0 1 4.16,0.74 3.21,3.21 0 0 1 1.35,2.19 c 0.33,2.69 -3.19,3.75 -5.32,4.14 l -0.82,0.15 v 4.36 a 1,1 0 0 0 2,0 V 19.17 C 24.61,17.79 24.88,14.41 24.7,13 Z"
       id="path1-3"
       style="fill:#ffffff;fill-opacity:1" /></g></svg>
