<?xml version="1.0" encoding="UTF-8" standalone="no"?>
<svg
   width="240"
   height="240"
   viewBox="0 0 240 240"
   fill="none"
   version="1.1"
   id="svg1"
   sodipodi:docname="app-notification.svg"
   inkscape:version="1.4.4 (dcaf3e7d9e, 2026-05-05)"
   xml:space="preserve"
   xmlns:inkscape="http://www.inkscape.org/namespaces/inkscape"
   xmlns:sodipodi="http://sodipodi.sourceforge.net/DTD/sodipodi-0.dtd"
   xmlns:xlink="http://www.w3.org/1999/xlink"
   xmlns="http://www.w3.org/2000/svg"
   xmlns:svg="http://www.w3.org/2000/svg"
   xmlns:rdf="http://www.w3.org/1999/02/22-rdf-syntax-ns#"
   xmlns:cc="http://creativecommons.org/ns#"
   xmlns:dc="http://purl.org/dc/elements/1.1/"><defs
     id="defs1"><linearGradient
       id="linearGradient25"
       inkscape:collect="always"><stop
         style="stop-color:#ec4899;stop-opacity:1;"
         offset="0"
         id="stop25" /><stop
         style="stop-color:#db2777;stop-opacity:1;"
         offset="1"
         id="stop26" /></linearGradient><linearGradient
       inkscape:collect="always"
       xlink:href="#linearGradient25"
       id="linearGradient26"
       x1="16.105961"
       y1="7.2184377"
       x2="222.81886"
       y2="302.43506"
       gradientUnits="userSpaceOnUse" /></defs><sodipodi:namedview
     id="namedview1"
     pagecolor="#ffffff"
     bordercolor="#000000"
     borderopacity="0.25"
     inkscape:showpageshadow="2"
     inkscape:pageopacity="0.0"
     inkscape:pagecheckerboard="0"
     inkscape:deskcolor="#d1d1d1"
     inkscape:zoom="0.81979167"
     inkscape:cx="-4.8792884"
     inkscape:cy="132.3507"
     inkscape:window-width="1920"
     inkscape:window-height="995"
     inkscape:window-x="0"
     inkscape:window-y="0"
     inkscape:window-maximized="1"
     inkscape:current-layer="svg1" /><metadata
     id="Namorix-Metadata-Block"><rdf:RDF><cc:Work
         rdf:about=""><dc:date>2026</dc:date><dc:creator><cc:Agent><dc:title>Nguyen Danh Nam</dc:title></cc:Agent></dc:creator><dc:rights><cc:Agent><dc:title>Nguyen Danh Nam</dc:title></cc:Agent></dc:rights><dc:description>Official brand asset for the Namorix Ecosystem. Created by Nguyen Danh Nam.</dc:description><cc:license
           rdf:resource="https://creativecommons.org/licenses/by-nc-nd/4.0/" /></cc:Work></rdf:RDF></metadata><path
     id="nmx-bg"
     d="M 186,0 H 54 C 24.1766,0 0,24.1766 0,54 v 132 c 0,29.823 24.1766,54 54,54 h 132 c 29.823,0 54,-24.177 54,-54 V 54 C 240,24.1766 215.823,0 186,0 Z"
     fill="#1C1C1E"
     style="mix-blend-mode:normal;fill:url(#linearGradient26);fill-opacity:1" /><g
     style="fill:none;fill-opacity:1;stroke:#ffffff;stroke-width:2.39284276;stroke-dasharray:none;stroke-opacity:1"
     id="g2"
     transform="matrix(5.2886885,0,0,5.2886885,56.540194,56.52864)"><g
       id="notification-bell"
       style="fill:none;fill-opacity:1;stroke:#ffffff;stroke-width:2.39284276;stroke-dasharray:none;stroke-opacity:1"><path
         id="vector"
         d="m 14.8728,19.4434 c 0,0.3033 -0.0776,0.6037 -0.2283,0.884 -0.1508,0.2803 -0.3717,0.5349 -0.6502,0.7495 -0.2786,0.2145 -0.6093,0.3846 -0.9732,0.5007 -0.3639,0.1161 -0.754,0.1759 -1.1479,0.1759 -0.3939,0 -0.7839,-0.0598 -1.1479,-0.1759 C 10.3614,21.4615 10.0307,21.2914 9.75221,21.0769 9.47368,20.8623 9.25273,20.6077 9.10199,20.3274 8.95124,20.0471 8.87366,19.7467 8.87366,19.4434"
         stroke="#000000"
         stroke-width="1.5"
         stroke-linecap="round"
         style="fill:none;fill-opacity:1;stroke:#ffffff;stroke-width:2.39284276;stroke-dasharray:none;stroke-opacity:1" /><path
         id="vector_2"
         d="m 19.6147,13.1897 0.2646,0.5708 c 1.0095,2.1769 -0.3052,4.7214 -2.6648,5.1575 l -0.1602,0.0296 c -3.425,0.6331 -6.9371,0.6331 -10.36212,0 C 4.31327,18.5079 3.05472,15.876 4.20588,13.7483 L 4.43229,13.3298 C 5.05046,12.1872 5.37418,10.9085 5.37418,9.60942 V 8.28813 c 0,-2.22379 1.25864,-4.256 3.24954,-5.24675 C 10.678,2.0191 13.0852,1.98433 15.1681,2.94684 l 0.2047,0.09454 c 2.1335,0.98588 3.4995,3.12187 3.4995,5.47215 v 1.31063 c 0,1.16244 0.2533,2.31094 0.7424,3.36554 z"
         stroke="#000000"
         stroke-width="1.5"
         style="fill:none;fill-opacity:1;stroke:#ffffff;stroke-width:2.39284276;stroke-dasharray:none;stroke-opacity:1" /></g></g></svg>
