<?xml version="1.0" encoding="UTF-8" standalone="no"?>
<svg
   width="240"
   height="240"
   viewBox="0 0 240 240"
   fill="none"
   version="1.1"
   id="svg1"
   sodipodi:docname="app-terminal.svg"
   inkscape:version="1.4.4 (dcaf3e7d9e, 2026-05-05)"
   xml:space="preserve"
   xmlns:inkscape="http://www.inkscape.org/namespaces/inkscape"
   xmlns:sodipodi="http://sodipodi.sourceforge.net/DTD/sodipodi-0.dtd"
   xmlns:xlink="http://www.w3.org/1999/xlink"
   xmlns="http://www.w3.org/2000/svg"
   xmlns:svg="http://www.w3.org/2000/svg"
   xmlns:rdf="http://www.w3.org/1999/02/22-rdf-syntax-ns#"
   xmlns:cc="http://creativecommons.org/ns#"
   xmlns:dc="http://purl.org/dc/elements/1.1/"><defs
     id="defs1"><linearGradient
       id="linearGradient1"
       inkscape:collect="always"><stop
         style="stop-color:#22c55e;stop-opacity:1;"
         offset="0"
         id="stop1" /><stop
         style="stop-color:#15803d;stop-opacity:1;"
         offset="1"
         id="stop2" /></linearGradient><linearGradient
       inkscape:collect="always"
       xlink:href="#linearGradient1"
       id="linearGradient2"
       x1="32.231758"
       y1="15.055914"
       x2="202.38034"
       y2="217.8311"
       gradientUnits="userSpaceOnUse" /></defs><sodipodi:namedview
     id="namedview1"
     pagecolor="#ffffff"
     bordercolor="#000000"
     borderopacity="0.25"
     inkscape:showpageshadow="2"
     inkscape:pageopacity="0.0"
     inkscape:pagecheckerboard="0"
     inkscape:deskcolor="#d1d1d1"
     inkscape:zoom="0.57968025"
     inkscape:cx="74.178825"
     inkscape:cy="85.391904"
     inkscape:window-width="1920"
     inkscape:window-height="995"
     inkscape:window-x="0"
     inkscape:window-y="0"
     inkscape:window-maximized="1"
     inkscape:current-layer="g2" /><metadata
     id="Namorix-Metadata-Block"><rdf:RDF><cc:Work
         rdf:about=""><dc:date>2026</dc:date><dc:creator><cc:Agent><dc:title>Nguyen Danh Nam</dc:title></cc:Agent></dc:creator><dc:rights><cc:Agent><dc:title>Nguyen Danh Nam</dc:title></cc:Agent></dc:rights><dc:description>Official brand asset for the Namorix Ecosystem. Created by Nguyen Danh Nam.</dc:description><cc:license
           rdf:resource="https://creativecommons.org/licenses/by-nc-nd/4.0/" /></cc:Work></rdf:RDF></metadata><path
     id="nmx-bg"
     d="M186 0H54C24.1766 0 0 24.1766 0 54V186C0 215.823 24.1766 240 54 240H186C215.823 240 240 215.823 240 186V54C240 24.1766 215.823 0 186 0Z"
     fill="#1C1C1E"
     style="fill-opacity:1;fill:url(#linearGradient2)" /><g
     style="fill:#ffffff;fill-opacity:1"
     id="g2"
     transform="matrix(0.56481738,0,0,0.56481738,47.706096,47.703375)"><path
       d="m 120.40301,136.48477 -68.111439,60.5435 A 11.351676,11.351676 0 1 1 37.20835,180.05952 L 95.774413,128.00039 37.20835,75.941259 A 11.35167,11.35167 0 1 1 52.291571,58.972527 l 68.111439,60.543483 a 11.351196,11.351196 0 0 1 0,16.96876 z m 90.83602,40.70721 h -90.81524 a 11.351917,11.351917 0 0 0 0,22.70383 h 90.81524 a 11.351917,11.351917 0 1 0 0,-22.70383 z"
       id="path1"
       style="fill:#ffffff;fill-opacity:1;stroke-width:2.95612;stroke-dasharray:none" /></g></svg>
