<?xml version="1.0" encoding="UTF-8" standalone="no"?>
<svg
   width="240"
   height="240"
   viewBox="0 0 240 240"
   fill="none"
   version="1.1"
   id="svg1"
   sodipodi:docname="app-network-traffic.svg"
   inkscape:version="1.4.3 (fcd0343856, 2026-01-01)"
   xml:space="preserve"
   xmlns:inkscape="http://www.inkscape.org/namespaces/inkscape"
   xmlns:sodipodi="http://sodipodi.sourceforge.net/DTD/sodipodi-0.dtd"
   xmlns:xlink="http://www.w3.org/1999/xlink"
   xmlns="http://www.w3.org/2000/svg"
   xmlns:svg="http://www.w3.org/2000/svg"
   xmlns:rdf="http://www.w3.org/1999/02/22-rdf-syntax-ns#"
   xmlns:cc="http://creativecommons.org/ns#"
   xmlns:dc="http://purl.org/dc/elements/1.1/"><defs
     id="defs1"><linearGradient
       id="linearGradient25"
       inkscape:collect="always"><stop
         style="stop-color:#06b6d4;stop-opacity:1;"
         offset="0"
         id="stop25" /><stop
         style="stop-color:#0891b2;stop-opacity:1;"
         offset="1"
         id="stop26" /></linearGradient><linearGradient
       inkscape:collect="always"
       xlink:href="#linearGradient25"
       id="linearGradient26"
       x1="16.105961"
       y1="7.2184377"
       x2="222.81886"
       y2="302.43506"
       gradientUnits="userSpaceOnUse" /></defs><sodipodi:namedview
     id="namedview1"
     pagecolor="#ffffff"
     bordercolor="#000000"
     borderopacity="0.25"
     inkscape:showpageshadow="2"
     inkscape:pageopacity="0.0"
     inkscape:pagecheckerboard="0"
     inkscape:deskcolor="#d1d1d1"
     inkscape:zoom="1.6395833"
     inkscape:cx="164.98094"
     inkscape:cy="146.68361"
     inkscape:window-width="1033"
     inkscape:window-height="737"
     inkscape:window-x="569"
     inkscape:window-y="108"
     inkscape:window-maximized="0"
     inkscape:current-layer="svg1" /><metadata
     id="Namorix-Metadata-Block"><rdf:RDF><cc:Work
         rdf:about=""><dc:date>2026</dc:date><dc:creator><cc:Agent><dc:title>Nguyen Danh Nam</dc:title></cc:Agent></dc:creator><dc:rights><cc:Agent><dc:title>Nguyen Danh Nam</dc:title></cc:Agent></dc:rights><dc:description>Official brand asset for the Namorix Ecosystem. Created by Nguyen Danh Nam.</dc:description><cc:license
           rdf:resource="https://creativecommons.org/licenses/by-nc-nd/4.0/" /></cc:Work></rdf:RDF></metadata><path
     id="nmx-bg"
     d="M 186,0 H 54 C 24.1766,0 0,24.1766 0,54 v 132 c 0,29.823 24.1766,54 54,54 h 132 c 29.823,0 54,-24.177 54,-54 V 54 C 240,24.1766 215.823,0 186,0 Z"
     fill="#1C1C1E"
     style="mix-blend-mode:normal;fill:url(#linearGradient26);fill-opacity:1" /><g
     style="fill:#ffffff;fill-opacity:1;stroke-width:0.999938;stroke-dasharray:none"
     id="g5"
     transform="matrix(6.0465116,0,0,6.0465116,47.38194,47.441861)"><path
       d="M 17.22,9.75 H 8.96002 c -0.56,0 -1.12,-0.18999 -1.56,-0.54999 l -2.19,-1.75 c -0.6,-0.48 -0.94,-1.19001 -0.94,-1.95001 0,-0.76 0.34,-1.48001 0.94,-1.95001 l 2.19,-1.75 c 0.44,-0.35 1,-0.54999 1.56,-0.54999 H 17.22 c 1.38,0 2.5,1.12 2.5,2.5 v 3.5 c 0,1.38 -1.12,2.5 -2.5,2.5 z m -8.25998,-7 c -0.23,0 -0.44999,0.08 -0.61999,0.22 L 6.15002,4.72 c -0.24,0.19 -0.38,0.48 -0.38,0.78 0,0.3 0.14,0.59 0.38,0.78 l 2.19001,1.75 c 0.18,0.14 0.39999,0.22 0.61999,0.22 H 17.22 c 0.55,0 1,-0.45 1,-1 v -3.5 c 0,-0.55 -0.45,-1 -1,-1 z"
       fill="#000000"
       id="path1"
       style="fill:#ffffff;fill-opacity:1;stroke-width:0.999938;stroke-dasharray:none" /><path
       d="m 15.0598,19.75 h -8.26 c -1.38,0 -2.5,-1.12 -2.5,-2.5 v -3.5 c 0,-1.38 1.12,-2.5 2.5,-2.5 h 8.26 c 0.57,0 1.12,0.19 1.56,0.55 l 2.19,1.75 c 0.6,0.48 0.94,1.19 0.94,1.95 0,0.76 -0.34,1.48 -0.94,1.95 l -2.19,1.75 c -0.44,0.36 -0.99,0.55 -1.56,0.55 z m -8.26,-7 c -0.55,0 -1,0.45 -1,1 v 3.5 c 0,0.55 0.45,1 1,1 h 8.26 c 0.23,0 0.45,-0.08 0.62,-0.22 l 2.19,-1.75 c 0.24,-0.19 0.38,-0.48 0.38,-0.78 0,-0.3 -0.14,-0.59 -0.38,-0.78 l -2.19,-1.75 c -0.18,-0.14 -0.4,-0.22 -0.62,-0.22 z"
       fill="#000000"
       id="path2"
       style="fill:#ffffff;fill-opacity:1;stroke-width:0.999938;stroke-dasharray:none" /><path
       d="m 12,12.75 c -0.41,0 -0.75,-0.34 -0.75,-0.75 V 9 c 0,-0.41 0.34,-0.75 0.75,-0.75 0.41,0 0.75,0.34 0.75,0.75 v 3 c 0,0.41 -0.34,0.75 -0.75,0.75 z"
       fill="#000000"
       id="path3"
       style="fill:#ffffff;fill-opacity:1;stroke-width:0.999938;stroke-dasharray:none" /><path
       d="m 12,22.75 c -0.41,0 -0.75,-0.34 -0.75,-0.75 v -3 c 0,-0.41 0.34,-0.75 0.75,-0.75 0.41,0 0.75,0.34 0.75,0.75 v 3 c 0,0.41 -0.34,0.75 -0.75,0.75 z"
       fill="#000000"
       id="path4"
       style="fill:#ffffff;fill-opacity:1;stroke-width:0.999938;stroke-dasharray:none" /><path
       d="M 15,22.75 H 9 C 8.59,22.75 8.25,22.41 8.25,22 8.25,21.59 8.59,21.25 9,21.25 h 6 c 0.41,0 0.75,0.34 0.75,0.75 0,0.41 -0.34,0.75 -0.75,0.75 z"
       fill="#000000"
       id="path5"
       style="fill:#ffffff;fill-opacity:1;stroke-width:0.999938;stroke-dasharray:none" /></g></svg>
