<?xml version="1.0" encoding="UTF-8" standalone="no"?>
<svg
   width="240"
   height="240"
   viewBox="0 0 240 240"
   fill="none"
   version="1.1"
   id="svg1"
   sodipodi:docname="app-about.svg"
   inkscape:version="1.4.4 (dcaf3e7d9e, 2026-05-05)"
   xml:space="preserve"
   xmlns:inkscape="http://www.inkscape.org/namespaces/inkscape"
   xmlns:sodipodi="http://sodipodi.sourceforge.net/DTD/sodipodi-0.dtd"
   xmlns:xlink="http://www.w3.org/1999/xlink"
   xmlns="http://www.w3.org/2000/svg"
   xmlns:svg="http://www.w3.org/2000/svg"
   xmlns:rdf="http://www.w3.org/1999/02/22-rdf-syntax-ns#"
   xmlns:cc="http://creativecommons.org/ns#"
   xmlns:dc="http://purl.org/dc/elements/1.1/"><defs
     id="defs1"><linearGradient
       id="linearGradient1"
       inkscape:collect="always"><stop
         style="stop-color:#3b82f6;stop-opacity:1;"
         offset="0"
         id="stop1" /><stop
         style="stop-color:#1d4ed8;stop-opacity:1;"
         offset="1"
         id="stop2" /></linearGradient><linearGradient
       inkscape:collect="always"
       xlink:href="#linearGradient1"
       id="linearGradient2"
       x1="32.231758"
       y1="15.055914"
       x2="202.38034"
       y2="217.8311"
       gradientUnits="userSpaceOnUse" /></defs><sodipodi:namedview
     id="namedview1"
     pagecolor="#ffffff"
     bordercolor="#000000"
     borderopacity="0.25"
     inkscape:showpageshadow="2"
     inkscape:pageopacity="0.0"
     inkscape:pagecheckerboard="0"
     inkscape:deskcolor="#d1d1d1"
     inkscape:zoom="1.1593605"
     inkscape:cx="37.089413"
     inkscape:cy="19.407251"
     inkscape:window-width="1920"
     inkscape:window-height="995"
     inkscape:window-x="0"
     inkscape:window-y="0"
     inkscape:window-maximized="1"
     inkscape:current-layer="svg1" /><metadata
     id="Namorix-Metadata-Block"><rdf:RDF><cc:Work
         rdf:about=""><dc:date>2026</dc:date><dc:creator><cc:Agent><dc:title>Nguyen Danh Nam</dc:title></cc:Agent></dc:creator><dc:rights><cc:Agent><dc:title>Nguyen Danh Nam</dc:title></cc:Agent></dc:rights><dc:description>Official brand asset for the Namorix Ecosystem. Created by Nguyen Danh Nam.</dc:description><cc:license
           rdf:resource="https://creativecommons.org/licenses/by-nc-nd/4.0/" /></cc:Work></rdf:RDF></metadata><path
     id="nmx-bg"
     d="M186 0H54C24.1766 0 0 24.1766 0 54V186C0 215.823 24.1766 240 54 240H186C215.823 240 240 215.823 240 186V54C240 24.1766 215.823 0 186 0Z"
     fill="#1C1C1E"
     style="fill-opacity:1;fill:url(#linearGradient2)" /><g
     style="fill:#ffffff;fill-opacity:1"
     id="g2"
     transform="matrix(3.3182721,0,0,3.3182721,60.471914,60.437958)"><circle
       cx="20.75"
       cy="6"
       r="4"
       class="clr-i-solid clr-i-solid-path-1"
       id="circle1"
       style="fill:#ffffff;fill-opacity:1" /><path
       d="m 24.84,26.23 a 1,1 0 0 0 -1.4,0.29 16.6,16.6 0 0 1 -3.51,3.77 c -0.33,0.25 -1.56,1.2 -2.08,1 -0.36,-0.11 -0.15,-0.82 -0.08,-1.12 L 18.3,28.6 c 0.22,-0.64 4.05,-12 4.47,-13.3 0.62,-1.9 0.35,-3.77 -2.48,-3.32 -0.77,0.08 -8.58,1.09 -8.72,1.1 a 1.0021103,1.0021103 0 0 0 0.13,2 c 0,0 3,-0.39 3.33,-0.42 a 0.88,0.88 0 0 1 0.85,0.44 2.47,2.47 0 0 1 -0.07,1.71 c -0.26,1 -4.37,12.58 -4.5,13.25 a 2.78,2.78 0 0 0 1.18,3 5,5 0 0 0 3.08,0.83 v 0 a 8.53,8.53 0 0 0 3.09,-0.62 c 2.49,-1 5.09,-3.66 6.46,-5.75 a 1,1 0 0 0 -0.28,-1.29 z"
       class="clr-i-solid clr-i-solid-path-2"
       id="path1"
       style="fill:#ffffff;fill-opacity:1" /></g></svg>
