<?xml version="1.0" encoding="UTF-8"?>
<svg id="Layer_1" data-name="Layer 1" xmlns="http://www.w3.org/2000/svg" viewBox="0 0 240 135">
  <metadata id="Namorix-Metadata-Block">
    <rdf:RDF xmlns:rdf="http://www.w3.org/1999/02/22-rdf-syntax-ns#"
      xmlns:dc="http://purl.org/dc/elements/1.1/"
      xmlns:cc="http://creativecommons.org/ns#">
      <cc:Work rdf:about="">
        <dc:title>Namorix Asset</dc:title>
        <dc:date>2026</dc:date>
        <dc:creator>
          <cc:Agent>
            <dc:title>Nguyen Danh Nam</dc:title>
          </cc:Agent>
        </dc:creator>
        <dc:rights>
          <cc:Agent>
            <dc:title>Nguyen Danh Nam</dc:title>
          </cc:Agent>
        </dc:rights>
        <dc:description>Official brand asset for the Namorix Ecosystem. Created by Nguyen Danh Nam.</dc:description>
        <cc:license rdf:resource="https://creativecommons.org/licenses/by-nc-nd/4.0/" />
      </cc:Work>
    </rdf:RDF>
  </metadata>
  <defs>
    <style>
      .cls-1 {
        fill: #0f8595;
      }

      .cls-2 {
        fill: #003d3f;
        opacity: .52;
      }

      .cls-3 {
        fill: #4bced8;
      }

      .cls-4 {
        fill: #00171f;
        stroke: #000;
        stroke-miterlimit: 10;
      }

      .cls-5 {
        fill: #3571b6;
      }
    </style>
  </defs>
  <path class="cls-4" d="M240.5,134.78H.5V-.1H240.5V134.78Z"/>
  <path class="cls-2" d="M43.19,120.34c-4.66-2.1-12.18-26.23-17.62-28.38-8.06-3.17-12.64-27.93-1.88-42.12,12.07-15.91,39.44-13.29,42.25-27.25,.64-3.17-.49-4.73,1-7.12,4.12-6.62,17.81-1.33,33.62-1.62,22.8-.43,25.54-11.76,43.75-12,23.68-.31,41.73,18.56,44,21,21.2,22.78,5.35,40.61,26.25,77.88,2.49,4.44,7.43,12.59,4.5,19.88-3.34,8.33-16.16,8.59-20.5,12-149.38,117.25-147.28-8.6-155.38-12.25Z"/>
  <g>
    <g>
      <path class="cls-5" d="M114.31,65.39c0,.11-.04,.18-.06,.25-.22,.6-.4,1.21-.5,1.84-.02,.15-.04,.3-.04,.45-.01,.44,0,.88,.03,1.31,.04,.53,.18,1.05,.36,1.55,.22,.6,.48,1.18,.83,1.72,.07,.1,.11,.21,.15,.33,.02,.07,.02,.13-.03,.17-.06,.04-.13,.03-.19,0-.11-.08-.22-.15-.32-.23-.69-.56-1.29-1.2-1.8-1.93,0,0-.01-.02-.02-.03-.19-.27-.19-.27-.5-.17-.64,.2-1.29,.35-1.96,.45-.38,.06-.76,.09-1.14,.11-1.23,.07-2.43-.12-3.61-.46-.8-.23-1.57-.55-2.32-.91-.06-.03-.12-.06-.18-.1-.13-.08-.17-.19-.15-.34,.05-.35,.16-.69,.27-1.03,.22-.66,.48-1.3,.76-1.94,.32-.73,.7-1.43,1.12-2.12,.35-.57,.71-1.13,1.11-1.66,.08-.11,.17-.21,.25-.31,.1-.12,.15-.12,.29-.04,.3,.17,.57,.39,.85,.59,.94,.66,1.95,1.17,3.03,1.55,.91,.32,1.84,.54,2.79,.68,.28,.04,.57,.08,.85,.14,.08,.02,.14,.04,.12,.12Z"/>
      <path class="cls-5" d="M105.96,77.3c-.32,0-.63,.01-.95,0-.35-.02-.69-.07-1.04-.13-.65-.12-1.3-.25-1.93-.45-.52-.16-1.03-.36-1.52-.59-.08-.04-.15-.09-.23-.13-.08-.04-.08-.09-.04-.16,.11-.19,.24-.36,.36-.54,.51-.69,.95-1.42,1.36-2.17,.33-.62,.64-1.25,.9-1.9,.1-.25,.19-.5,.31-.74,.08-.17,.11-.18,.28-.12,.39,.14,.77,.29,1.15,.43,.86,.31,1.75,.54,2.66,.64,.31,.03,.62,.06,.93,.07,.14,0,.28,.02,.41,.02,.91,0,1.8-.1,2.69-.31,.25-.06,.5-.1,.75-.14,.02,0,.03,0,.05,0,.13,0,.17,.04,.15,.17-.03,.2-.09,.39-.15,.58-.17,.53-.39,1.04-.61,1.55-.49,1.13-1.11,2.17-1.84,3.16-.33,.44-.4,.48-.94,.57-.54,.09-1.08,.14-1.62,.18-.38,.03-.77,.02-1.15,.02Z"/>
      <path class="cls-5" d="M131.71,64.94c-.02,.05-.02,.11,0,.17,.05,.21,.04,.43,0,.64-.06,.28-.09,.56-.16,.83-.07,.29-.18,.56-.29,.83-.14,.33-.3,.66-.46,.98-.25,.53-.57,1.01-.94,1.47-.16,.2-.33,.39-.51,.57-.35,.33-.73,.62-1.14,.85-.41,.23-.83,.43-1.27,.59-.32,.12-.66,.19-1,.23-.51,.07-1.03,.07-1.54,.06-.38,0-.76-.06-1.13-.14-.7-.16-1.36-.4-1.99-.73-.5-.26-.96-.57-1.39-.94-.21-.18-.4-.37-.59-.56-.33-.35-.62-.74-.87-1.15-.25-.43-.47-.87-.62-1.34-.12-.37-.22-.74-.26-1.13-.05-.46-.04-.92-.02-1.38,.02-.48,.16-.94,.35-1.38,.17-.39,.37-.76,.62-1.1,.08-.11,.19-.2,.26-.32,.21-.09,.43-.13,.66-.18,.44-.09,.89-.16,1.35-.18,.04,0,.08,0,.12,0,.07,.02,.13,.06,.15,.14,0,.05,.02,.1,.03,.15,.03,.63,.19,1.24,.36,1.84,.06,.22,.15,.44,.22,.66,.03,.08,.03,.16,.01,.24-.07,.28-.15,.56-.19,.84-.1,.64-.05,1.27,.13,1.89,.21,.72,.63,1.29,1.21,1.75,.61,.49,1.29,.84,2.05,1.04,.17,.04,.35,.06,.53,.08,.26,.02,.53,.04,.8,.03,.38-.01,.75-.02,1.12-.11,.44-.11,.86-.29,1.26-.52,.98-.57,1.76-1.35,2.31-2.34,.3-.53,.49-1.09,.65-1.67,.06-.22,.1-.44,.16-.66,.02-.01,.04-.03,.07-.04,0,0,0,0,0,0Z"/>
    </g>
    <g>
      <path class="cls-1" d="M123.09,82.83c0-.17-.02-.34-.09-.51-.32-.84-.87-1.45-1.75-1.72-.23-.07-.36-.21-.41-.45-.1-.44-.16-.88-.14-1.33,.03-.68,.21-1.31,.53-1.9,.1-.18,.21-.34,.31-.51,.04-.07,.09-.14,.1-.23,.02-.1-.01-.15-.12-.15-.08,0-.16,0-.23,.02-1.37,.27-2.64,.79-3.81,1.56-.4,.26-.76,.56-1.11,.88-.24,.22-.47,.44-.68,.69-.09,.11-.1,.21-.05,.34,.08,.21,.17,.42,.27,.62,.43,.88,.88,1.75,1.34,2.62,.04,.07,.11,.13,.11,.22h4.21s0-.02,0-.03c.07,0,.13,0,.2,0,.39,0,.79,0,1.18,0,.12,0,.12,0,.12-.12Z"/>
      <path class="cls-1" d="M141.45,82.66c-.05-.21-.11-.41-.21-.6-.45-.9-1.15-1.5-2.13-1.74-.46-.12-.47-.11-.71-.57-.33-.64-.56-1.33-.74-2.03-.2-.74-.32-1.49-.33-2.26,0-.56,.1-1.1,.19-1.65,.03-.17,.05-.34,.05-.51,0-.14-.05-.18-.19-.17-.05,0-.1,.01-.15,.03-.55,.14-1.06,.35-1.57,.58-.68,.3-1.24,.75-1.75,1.28-.48,.5-.87,1.06-1.16,1.69-.15,.33-.3,.67-.4,1.02-.08,.29-.06,.56,.09,.83,.26,.48,.53,.95,.85,1.39,.62,.86,1.33,1.64,2.14,2.32,.29,.25,.61,.46,.91,.7h4.64s.01-.01,0-.02c.11,0,.22,0,.33-.05,.14-.05,.17-.11,.14-.25Z"/>
      <path class="cls-1" d="M122.07,51.7c1.12,0,2.23,.13,3.32,.41,.55,.14,1.08,.34,1.6,.57,.77,.35,1.51,.75,2.2,1.24,.43,.31,.83,.65,1.22,1.01,.24,.22,.47,.44,.67,.69,.04,.05,.07,.1,.1,.15,.05,.1,.02,.15-.09,.14-.07,0-.14-.03-.21-.06-.29-.13-.58-.25-.87-.38-.47-.2-.97-.32-1.48-.37-.49-.05-.99-.07-1.48-.05-.42,.02-.82,.11-1.22,.23-.87,.25-1.66,.65-2.36,1.22-.7,.57-1.23,1.27-1.66,2.06-.38,.72-.58,1.5-.74,2.29-.02,.11-.05,.22-.07,.33,0,.05-.04,.07-.08,.08-.11,.03-.23,.03-.35,.04-.33,.05-.66,.07-.99,.11-.11,.01-.22,0-.32-.05-.54-.23-1.05-.51-1.55-.8-.77-.46-1.5-.97-2.18-1.56-.86-.76-1.64-1.6-2.28-2.55-.29-.43-.58-.87-.8-1.34-.16-.33-.14-.3,.13-.46,1.34-.81,2.73-1.53,4.21-2.05,.9-.32,1.82-.55,2.77-.69,.52-.08,1.04-.14,1.57-.17,.31-.02,.62-.03,.93-.03Z"/>
      <path class="cls-1" d="M114.55,64.91c-.28-.02-.56-.02-.84-.06-.5-.07-1-.14-1.49-.26-.82-.19-1.61-.45-2.38-.79-1.08-.49-2.08-1.12-3.01-1.86-.17-.14-.33-.28-.49-.43-.16-.17-.17-.22-.05-.42,.16-.27,.36-.51,.56-.75,.29-.35,.6-.68,.91-1.02,.3-.32,.62-.64,.94-.95,.6-.59,1.25-1.13,1.95-1.6,.42-.28,.84-.56,1.28-.81,.09-.05,.19-.1,.28-.14,.09-.05,.17-.02,.24,.05,.04,.05,.08,.1,.12,.16,.42,.72,.94,1.36,1.47,1.99,.17,.2,.35,.4,.54,.59,.97,.96,2.05,1.77,3.23,2.44,.21,.12,.43,.24,.62,.38,.03,.02,.06,.05,.09,.07,.05,.05,.04,.1,0,.14-.04,.04-.09,.06-.14,.08-.61,.24-1.19,.55-1.74,.91-.34,.23-.63,.51-.91,.8-.4,.42-.74,.89-1.05,1.37-.03,.05-.05,.12-.13,.1Z"/>
      <path class="cls-1" d="M127.42,57.84c-.17,.07-.21,.22-.23,.38-.03,.21-.01,.42,0,.63,.02,.14,0,.29,.04,.43,.01,.06-.03,.07-.06,.08-.1,.05-.2,.09-.3,.14-.64,.31-1.1,.8-1.44,1.41-.24,.43-.39,.9-.45,1.38-.08,.61,0,1.2,.25,1.77,.14,.33,.36,.61,.59,.88,.22,.26,.47,.5,.68,.78,.3,.39,.45,.83,.44,1.33,0,.27-.02,.54-.1,.81-.13,.42-.39,.74-.73,1.01-.11,.09-.23,.18-.36,.24-.15,.08-.22,.04-.24-.13-.01-.09,0-.18-.01-.27,0-.25,0-.51-.06-.76-.05-.26-.17-.48-.36-.67-.26-.27-.57-.49-.88-.7-.41-.28-.83-.55-1.21-.88-.46-.4-.8-.87-1.06-1.42-.28-.59-.45-1.21-.53-1.85-.21-1.8,.25-3.41,1.4-4.81,.75-.92,1.7-1.55,2.79-1.98,.4-.16,.82-.22,1.25-.25,.42-.03,.83-.04,1.25-.03,.04,0,.08,0,.12,0-.03,.05-.09,.06-.14,.08-.25,.13-.45,.3-.57,.56-.21,.46-.33,.94-.3,1.45,0,.06,.02,.12,.05,.17,.05,.07,.1,.13,.15,.2Z"/>
      <path class="cls-1" d="M105.89,77.64c.36,0,.71,.01,1.07,0,.43-.02,.85-.04,1.27-.11,.13-.02,.27-.02,.4-.02,.08,0,.11,.04,.08,.12-.02,.07-.06,.13-.1,.19-.16,.23-.36,.42-.55,.62-.78,.82-1.64,1.55-2.58,2.18-.66,.45-1.36,.85-2.09,1.17-.07,.03-.14,.06-.22,.07-.11,.01-.16-.04-.12-.15,.07-.23,.18-.44,.29-.65,.39-.71,.75-1.43,1-2.21,.11-.34,.19-.69,.28-1.04,.04-.15,.04-.15,.19-.15,.36,0,.72,0,1.08,0,0,0,0,0,0-.01Z"/>
      <path class="cls-1" d="M127.78,61.74c.2-.06,.33,.07,.46,.27,.37,.56,.63,1.16,.73,1.82,.07,.48,.07,.95-.06,1.42-.1,.36-.31,.66-.54,.95-.2,.25-.45,.44-.75,.56-.1,.04-.12,.03-.13-.08-.02-.22,0-.43-.03-.65-.09-.64-.31-1.21-.79-1.67-.25-.25-.56-.41-.88-.56-.14-.07-.28-.13-.41-.22-.11-.07-.15-.16-.11-.29,.02-.06,.03-.13,.06-.19,.32-.6,.78-1.05,1.45-1.24,.31-.09,.63-.1,1-.12Z"/>
    </g>
    <g>
      <path class="cls-3" d="M109.83,82.98c-.07-.06-.16-.02-.24-.03-.16-.03-.17-.04-.16-.2,.03-.45,.11-.9,.18-1.35,.08-.5,.16-1.01,.23-1.51,.05-.41,.1-.81,.1-1.23,0-.46-.06-.91-.16-1.35,0-.02,0-.04-.02-.06-.04-.11-.01-.21,.06-.31,.22-.31,.43-.62,.63-.94,.33-.51,.64-1.04,.92-1.59,.35-.68,.66-1.37,.9-2.09,.08-.25,.17-.49,.28-.73,0-.02,.01-.04,.02-.06,.05-.1,.08-.11,.16-.03,.15,.14,.31,.29,.45,.44,.4,.43,.81,.84,1.25,1.22,1.18,.98,2.52,1.65,3.97,2.13,.42,.14,.85,.27,1.28,.37,.09,.02,.18,.05,.27,.09,.14,.08,.15,.18,0,.26-.07,.05-.16,.09-.24,.12-.49,.18-.95,.4-1.42,.63-.94,.48-1.8,1.08-2.54,1.83-.55,.57-1,1.2-1.3,1.94-.04,.11-.05,.11,.05,.17,.07,.04,.15,.07,.22,.12,.63,.37,.99,.94,1.15,1.64,.01,.06,.03,.12,.04,.18,.02,.18-.03,.24-.2,.29-.09,.02-.17,.04-.26,.04-.04,0-.08,0-.11,.03h-5.54Z"/>
      <path class="cls-3" d="M148.93,74.12c-.37-.67-.69-1.37-1.05-2.04-.17-.31-.31-.63-.46-.94-.16-.36-.33-.73-.39-1.13-.18-1.06-.51-2.07-1.02-3.01-.32-.6-.71-1.15-1.17-1.66-.46-.51-.98-.97-1.53-1.39-.93-.71-1.91-1.34-2.87-2-.54-.37-1.07-.73-1.6-1.12-1.08-.79-2.08-1.68-3.09-2.56-.5-.43-1-.86-1.51-1.29-.57-.48-1.17-.92-1.77-1.36-.34-.25-.68-.5-1.04-.72-.06-.04-.12-.09-.19-.1-.12-.01-.17,.04-.13,.16,.04,.09,.1,.17,.16,.25,.32,.41,.66,.81,.97,1.23,.94,1.33,1.62,2.78,1.99,4.37,.18,.81,.28,1.63,.29,2.46,0,.43-.02,.86-.06,1.3-.03,.34-.08,.68-.16,1.02-.3,1.28-.86,2.45-1.59,3.53-.03,.05-.06,.11-.12,.13-.01-.06,0-.1,.02-.15,.05-.2,.09-.4,.1-.61,.02-.48,.02-.95-.03-1.43-.04-.34-.11-.67-.26-.98-.17-.37-.39-.71-.6-1.06-.02-.04-.05-.07-.1-.09-.02,.05-.02,.11,0,.17,.05,.21,.04,.43,0,.64-.06,.28-.09,.56-.16,.83-.07,.29-.18,.56-.29,.83-.14,.33-.3,.66-.46,.98-.25,.53-.57,1.01-.94,1.47-.16,.2-.33,.39-.51,.57-.35,.33-.73,.62-1.14,.85-.41,.23-.83,.43-1.27,.59-.32,.12-.66,.19-1,.23-.51,.07-1.03,.07-1.54,.06-.38,0-.76-.06-1.13-.14-.7-.16-1.36-.4-1.99-.73-.5-.26-.96-.57-1.39-.94-.21-.18-.4-.37-.59-.56-.33-.35-.62-.74-.87-1.15-.25-.43-.47-.87-.62-1.34-.12-.37-.22-.74-.26-1.13-.05-.46-.04-.92-.02-1.38,.02-.48,.16-.94,.35-1.38,.17-.39,.37-.76,.62-1.1,.08-.11,.19-.2,.26-.32-.03,0-.06,0-.08,.01-1.29,.43-2.36,1.17-3.19,2.26-.45,.59-.78,1.25-1.06,1.94-.2,.5-.29,1.02-.3,1.56-.01,.51-.02,1.02,.02,1.53,.03,.34,.07,.67,.16,1,.14,.48,.36,.93,.59,1.38,.42,.81,.97,1.52,1.67,2.1,.73,.61,1.56,1.04,2.45,1.36,.99,.35,2.03,.48,3.07,.5,.61,0,1.21,0,1.82-.03,.22-.01,.18-.02,.22,.18,.07,.29,.15,.58,.25,.86,.29,.81,.63,1.6,1.04,2.36,.24,.44,.48,.88,.79,1.27,.26,.34,.55,.65,.85,.96,.4,.42,.82,.83,1.25,1.23,.23,.21,.49,.36,.74,.54h3.91s0-.02,0-.03c.42,0,.85,0,1.27,0,.16,0,.16,0,.15-.16-.01-.37-.13-.71-.32-1.02-.44-.75-1.11-1.19-1.94-1.41-.11-.03-.23-.04-.34-.05-.07,0-.09-.04-.09-.1-.01-.2,.02-.39,.03-.58,.05-.92,.23-1.81,.57-2.67,.24-.62,.6-1.16,1.01-1.68,.24-.3,.51-.58,.79-.85,.9-.87,1.99-1.35,3.21-1.59,.27-.05,.54-.08,.81-.09,.16,0,.32-.03,.48-.02,.8,.04,1.58,.16,2.34,.41,1.11,.37,2.15,.9,3.15,1.51,.4,.24,.77,.53,1.17,.77,.49,.3,1.02,.47,1.59,.47,.67,0,1.27-.22,1.81-.62,.12-.09,.24-.18,.35-.28,.06-.06,.1-.13,.15-.19v-.27c-.07-.14-.12-.28-.2-.42Zm-4.82-3.62c-.6-.07-1.06-.35-1.19-1-.01-.05-.02-.11-.03-.16-.02-.16,0-.18,.21-.18,.32,.04,.62,.17,.84,.47,.16,.22,.26,.46,.31,.73,.02,.12,0,.16-.13,.14Z"/>
      <path class="cls-3" d="M97.56,82.94c-.33,0-.67,.01-1,0-.41-.02-.81-.09-1.22-.17-.89-.19-1.76-.45-2.62-.77-.27-.1-.52-.21-.77-.36-.04-.02-.08-.05-.11-.07-.14-.11-.13-.17,.03-.25,.2-.11,.41-.18,.62-.25,.64-.21,1.26-.47,1.87-.75,.89-.41,1.75-.88,2.56-1.43,.56-.38,1.09-.8,1.59-1.26,.36-.33,.71-.68,1.05-1.02,.06-.06,.13-.12,.2-.18,.11-.11,.24-.12,.38-.06,.47,.19,.95,.37,1.44,.53,.75,.25,1.52,.43,2.29,.6,.04,0,.08,.02,.11,.03,.25,.06,.26,.06,.24,.32-.01,.23-.08,.45-.15,.66-.23,.71-.48,1.41-.84,2.06-.22,.39-.45,.78-.72,1.14-.1,.13-.22,.25-.34,.37-.1,.09-.22,.15-.34,.2-.69,.25-1.4,.43-2.12,.56-.32,.05-.64,.07-.96,.09-.39,.03-.79,.02-1.18,.02Z"/>
      <path class="cls-3" d="M127.42,57.84c-.05-.07-.1-.13-.15-.2-.04-.05-.05-.11-.05-.17-.03-.51,.09-.99,.3-1.45,.12-.26,.32-.44,.57-.56,.05-.02,.11-.03,.14-.08,.36,0,.7,.1,1.04,.2,.88,.25,1.67,.67,2.35,1.28,.6,.53,1.08,1.15,1.45,1.86,.38,.73,.66,1.5,.82,2.32,.09,.47,.16,.94,.22,1.41,.04,.34,.08,.67,.07,1.01,0,.12-.04,.21-.14,.28-.07,.05-.13,.1-.2,.15-.05,.04-.11,.07-.18,.08-.22,.03-.45,.08-.66,0-.26-.1-.46-.28-.6-.53-.1-.18-.13-.39-.17-.59-.04-.25-.05-.5-.1-.74-.15-.71-.45-1.35-.93-1.91-.31-.36-.71-.61-1.13-.81-.37-.18-.75-.33-1.16-.39-.13-.02-.24,.02-.36,.03-.03,0-.05,.02-.09,0-.05-.29-.19-.55-.35-.79-.06-.08-.12-.16-.19-.23-.14-.14-.3-.2-.5-.17Z"/>
      <path class="cls-3" d="M129.5,59.65c.19,0,.36,.04,.54,.09,.45,.13,.66,.47,.78,.88,.04,.13,.05,.27,.04,.41,0,.14-.05,.18-.19,.16-.28-.03-.55-.1-.81-.17-.24-.07-.42-.21-.57-.41-.17-.23-.22-.49-.2-.77,0-.08,.04-.13,.13-.15,.09-.03,.19-.02,.28-.02Z"/>
    </g>
  </g>
</svg>
