<?xml version="1.0" encoding="UTF-8"?>
<svg id="Layer_1_Image" data-name="Layer 1 Image" xmlns="http://www.w3.org/2000/svg" viewBox="0 0 64 64">
  <metadata id="Namorix-Metadata-Block">
    <rdf:RDF xmlns:rdf="http://www.w3.org/1999/02/22-rdf-syntax-ns#"
      xmlns:dc="http://purl.org/dc/elements/1.1/"
      xmlns:cc="http://creativecommons.org/ns#">
      <cc:Work rdf:about="">
        <dc:title>Namorix Asset</dc:title>
        <dc:date>2026</dc:date>
        <dc:creator>
          <cc:Agent>
            <dc:title>Nguyen Danh Nam</dc:title>
          </cc:Agent>
        </dc:creator>
        <dc:rights>
          <cc:Agent>
            <dc:title>Nguyen Danh Nam</dc:title>
          </cc:Agent>
        </dc:rights>
        <dc:description>Official brand asset for the Namorix Ecosystem. Created by Nguyen Danh Nam.</dc:description>
        <cc:license rdf:resource="https://creativecommons.org/licenses/by-nc-nd/4.0/" />
      </cc:Work>
    </rdf:RDF>
  </metadata>
  <defs>
    <style>
      .cls-1 {
        fill: #0f8595;
      }

      .cls-2 {
        fill: #4bced8;
      }

      .cls-3 {
        fill: #3571b6;
      }
    </style>
  </defs>
  <path class="cls-3" d="M55.8,34.99c1.62,8.31-5.42,18.02-13.01,19.07-14.62,2.03-28.83-11.07-22.22-25.38,.02-.04,.12-.02,.18-.02l-.05-.1c.79-.82,8.13-2.74,8.31-1.12,.32,2.07,.81,4.1,1.38,6.1-.05,3.73-1.53,6.26,1.01,9.89,3.99,5.99,12.9,6.67,18.26,2.12,1.91-1.53,3.33-3.42,4.38-5.61,.88-1.44,.93-3.78,1.75-4.94Z"/>
  <g>
    <path class="cls-1" d="M2,29.48C3.12,13.81,17.76,.76,33.63,1.86c8.05,.31,17.66,4.63,21.96,11.64-10.85-7.32-24.51-1.24-26.56,11.59-.21,1.04-.26,1.07-1.41,1.09-8.49,.05-15.85,7.17-16.9,15.45-.32,2.09-.02,4.16,.41,6.22,.58,3.23,2.67,5.74,3.89,8.69-7.92-4.85-12.31-14.18-13.02-23.12v-3.95Z"/>
    <path class="cls-1" d="M47.63,10.95c-1.68,1.94-3.1,3.63-2.37,6.44-2.43,2.22,.12,3.17-1.04,3.93-5.3,2.38-7.38,9.89-2.82,14,1.16,1.29,2.54,2.72,2.42,4.6,.18,2.19-.53,4.76-2.82,5.62-.58,.18-.75,.07-.75-.5,.72-6.59-6.89-5.28-9.36-12.32-4.39-11.3,4.81-22.83,16.75-21.77Z"/>
    <path class="cls-1" d="M49.09,34.1c.01,1.68-1.61,5.83-3.64,5.46-.34-.12-.18-.5-.19-.76-.34-7.2-6.42-6.02-5.6-8.14,.71-1.84,4.83-5.5,6.68-3.89,1.79,2.03,2.75,4.67,2.75,7.34Z"/>
  </g>
  <g>
    <path class="cls-2" d="M28.63,61.84c-17.42-1.19-24.07-24.75-8.05-33.17-10.03,27.2,36.49,35.99,35.22,6.32,2.68,2.69,3.21,8.11,2.17,11.19-4.12,12.2-20.89,17.52-29.34,15.66Z"/>
    <path class="cls-2" d="M61.99,32.11c-1.89,1.41-4.85,.49-5.01-2.07-.03-4.75-3.15-8.77-7.93-9.51-.62-.16-1.41-.01-1.7-.76-.42-.94-1.03-2.09-2.09-2.38-.72-2.81,.69-4.5,2.37-6.44,9.34,2,14.27,8.71,14.37,17.74,.01,1.17,0,2.28,0,3.42Z"/>
    <path class="cls-2" d="M50.31,21.72c1.69,0,3.38,1.54,3.51,3.22,.21,2-3.27,.43-3.98-.29-.82-.84-1.52-3.09,.47-2.93Z"/>
  </g>
</svg>