<?xml version="1.0" encoding="UTF-8" standalone="no"?>
<svg
   width="240"
   height="240"
   viewBox="0 0 240 240"
   fill="none"
   version="1.1"
   id="svg1"
   sodipodi:docname="app-settings.svg"
   inkscape:version="1.4.4 (dcaf3e7d9e, 2026-05-05)"
   xmlns:inkscape="http://www.inkscape.org/namespaces/inkscape"
   xmlns:sodipodi="http://sodipodi.sourceforge.net/DTD/sodipodi-0.dtd"
   xmlns:xlink="http://www.w3.org/1999/xlink"
   xmlns="http://www.w3.org/2000/svg"
   xmlns:svg="http://www.w3.org/2000/svg"
   xmlns:rdf="http://www.w3.org/1999/02/22-rdf-syntax-ns#"
   xmlns:cc="http://creativecommons.org/ns#"
   xmlns:dc="http://purl.org/dc/elements/1.1/">
  <defs
     id="defs1">
    <linearGradient
       id="linearGradient1"
       inkscape:collect="always">
      <stop
         style="stop-color:#6d6d72;stop-opacity:1;"
         offset="0"
         id="stop1" />
      <stop
         style="stop-color:#48484a;stop-opacity:1;"
         offset="1"
         id="stop2" />
    </linearGradient>
    <linearGradient
       inkscape:collect="always"
       xlink:href="#linearGradient1"
       id="linearGradient2"
       x1="32.231758"
       y1="15.055914"
       x2="202.38034"
       y2="217.8311"
       gradientUnits="userSpaceOnUse" />
  </defs>
  <sodipodi:namedview
     id="namedview1"
     pagecolor="#ffffff"
     bordercolor="#000000"
     borderopacity="0.25"
     inkscape:showpageshadow="2"
     inkscape:pageopacity="0.0"
     inkscape:pagecheckerboard="0"
     inkscape:deskcolor="#d1d1d1"
     inkscape:zoom="1.1593605"
     inkscape:cx="136.28203"
     inkscape:cy="163.45218"
     inkscape:window-width="1920"
     inkscape:window-height="995"
     inkscape:window-x="0"
     inkscape:window-y="0"
     inkscape:window-maximized="1"
     inkscape:current-layer="svg1" />
  <metadata
     id="Namorix-Metadata-Block">
    <rdf:RDF>
      <cc:Work
         rdf:about="">
        <dc:title>Namorix Asset</dc:title>
        <dc:date>2026</dc:date>
        <dc:creator>
          <cc:Agent>
            <dc:title>Nguyen Danh Nam</dc:title>
          </cc:Agent>
        </dc:creator>
        <dc:rights>
          <cc:Agent>
            <dc:title>Nguyen Danh Nam</dc:title>
          </cc:Agent>
        </dc:rights>
        <dc:description>Official brand asset for the Namorix Ecosystem. Created by Nguyen Danh Nam.</dc:description>
        <cc:license
           rdf:resource="https://creativecommons.org/licenses/by-nc-nd/4.0/" />
      </cc:Work>
    </rdf:RDF>
  </metadata>
  <path
     id="nmx-bg"
     d="M186 0H54C24.1766 0 0 24.1766 0 54V186C0 215.823 24.1766 240 54 240H186C215.823 240 240 215.823 240 186V54C240 24.1766 215.823 0 186 0Z"
     fill="#1C1C1E"
     style="fill-opacity:1;fill:url(#linearGradient2)" />
  <g
     id="g1"
     transform="matrix(1.6688357,0,0,1.6386265,-121.98105,-76.635917)">
    <path
       id="nmx-glyph-fixed-1"
       d="M 111.25,109.163 V 130.8 c 0,7.95 0,7.95 7.5,13.013 l 20.625,11.925 c 3.112,1.8 8.175,1.8 11.25,0 l 20.625,-11.925 c 7.5,-5.063 7.5,-5.063 7.5,-12.975 v -21.675 c 0,-7.913 0,-7.913 -7.5,-12.9751 l -20.625,-11.925 c -3.075,-1.8 -8.138,-1.8 -11.25,0 l -20.625,11.925 c -7.5,5.0621 -7.5,5.0621 -7.5,12.9751 z"
       stroke="#ffffff"
       stroke-width="10"
       stroke-linecap="round"
       stroke-linejoin="round" />
    <path
       id="nmx-glyph-fixed-2"
       d="m 145,131.25 c 6.213,0 11.25,-5.037 11.25,-11.25 0,-6.213 -5.037,-11.25 -11.25,-11.25 -6.213,0 -11.25,5.037 -11.25,11.25 0,6.213 5.037,11.25 11.25,11.25 z"
       stroke="#ffffff"
       stroke-width="10"
       stroke-linecap="round"
       stroke-linejoin="round" />
  </g>
</svg>
