<?xml version="1.0" encoding="UTF-8" standalone="no"?>
<svg
   width="240"
   height="240"
   viewBox="0 0 240 240"
   fill="none"
   version="1.1"
   id="svg1"
   sodipodi:docname="app-package-center.svg"
   inkscape:version="1.4.4 (dcaf3e7d9e, 2026-05-05)"
   xml:space="preserve"
   xmlns:inkscape="http://www.inkscape.org/namespaces/inkscape"
   xmlns:sodipodi="http://sodipodi.sourceforge.net/DTD/sodipodi-0.dtd"
   xmlns:xlink="http://www.w3.org/1999/xlink"
   xmlns="http://www.w3.org/2000/svg"
   xmlns:svg="http://www.w3.org/2000/svg"
   xmlns:rdf="http://www.w3.org/1999/02/22-rdf-syntax-ns#"
   xmlns:cc="http://creativecommons.org/ns#"
   xmlns:dc="http://purl.org/dc/elements/1.1/"><defs
     id="defs1"><linearGradient
       id="linearGradient25"
       inkscape:collect="always"><stop
         style="stop-color:#f97316;stop-opacity:1;"
         offset="0"
         id="stop25" /><stop
         style="stop-color:#ea580c;stop-opacity:1;"
         offset="1"
         id="stop26" /></linearGradient><linearGradient
       inkscape:collect="always"
       xlink:href="#linearGradient25"
       id="linearGradient26"
       x1="16.105961"
       y1="7.2184377"
       x2="222.81886"
       y2="302.43506"
       gradientUnits="userSpaceOnUse" /><style
       id="style1">.cls-1{fill:#41416e;}</style></defs><sodipodi:namedview
     id="namedview1"
     pagecolor="#ffffff"
     bordercolor="#000000"
     borderopacity="0.25"
     inkscape:showpageshadow="2"
     inkscape:pageopacity="0.0"
     inkscape:pagecheckerboard="0"
     inkscape:deskcolor="#d1d1d1"
     inkscape:zoom="0.81979167"
     inkscape:cx="-4.8792884"
     inkscape:cy="132.3507"
     inkscape:window-width="1920"
     inkscape:window-height="995"
     inkscape:window-x="0"
     inkscape:window-y="0"
     inkscape:window-maximized="1"
     inkscape:current-layer="svg1" /><metadata
     id="Namorix-Metadata-Block"><rdf:RDF><cc:Work
         rdf:about=""><dc:date>2026</dc:date><dc:creator><cc:Agent><dc:title>Nguyen Danh Nam</dc:title></cc:Agent></dc:creator><dc:rights><cc:Agent><dc:title>Nguyen Danh Nam</dc:title></cc:Agent></dc:rights><dc:description>Official brand asset for the Namorix Ecosystem. Created by Nguyen Danh Nam.</dc:description><cc:license
           rdf:resource="https://creativecommons.org/licenses/by-nc-nd/4.0/" /></cc:Work></rdf:RDF></metadata><path
     id="nmx-bg"
     d="M 186,0 H 54 C 24.1766,0 0,24.1766 0,54 v 132 c 0,29.823 24.1766,54 54,54 h 132 c 29.823,0 54,-24.177 54,-54 V 54 C 240,24.1766 215.823,0 186,0 Z"
     fill="#1C1C1E"
     style="mix-blend-mode:normal;fill:url(#linearGradient26);fill-opacity:1" /><path
     id="package-Regular-2"
     data-name="package-Regular"
     class="cls-1"
     d="M 161.5935,75.531164 134.73926,63.60553 a 36.887827,36.887827 0 0 0 -29.51518,0 L 78.39435,75.531164 A 28.685119,28.685119 0 0 0 60.4875,101.55529 v 36.91836 a 28.685119,28.685119 0 0 0 17.90685,26.02411 l 26.85417,11.92574 a 36.430152,36.430152 0 0 0 14.61107,3.05162 c 0.0487,0 0.0918,0 0.14041,0 0.0488,0 0.0918,0 0.1404,0 a 36.430152,36.430152 0 0 0 14.61109,-3.05162 l 26.85416,-11.92574 a 28.685119,28.685119 0 0 0 17.90685,-26.02411 v -36.91836 a 28.685119,28.685119 0 0 0 -17.919,-26.024126 z m -52.64031,-3.558199 v 0 a 27.641471,27.641471 0 0 1 22.08144,0 l 26.85417,11.925809 a 23.295977,23.295977 0 0 1 4.88251,2.935466 l -15.31294,6.811226 -43.65019,-19.395888 z m -26.854194,11.925809 10.430406,-4.626289 43.644158,19.389851 -8.8558,3.924434 a 19.078665,19.078665 0 0 1 -14.68436,0 L 77.216427,86.83424 a 23.613368,23.613368 0 0 1 4.888679,-2.935466 z m 0,72.231476 a 19.664566,19.664566 0 0 1 -12.456667,-17.6566 v -36.91836 a 17.442999,17.442999 0 0 1 1.653967,-7.323854 l 37.638554,16.728884 a 26.622249,26.622249 0 0 0 6.48164,1.83095 v 57.12006 a 26.854187,26.854187 0 0 1 -6.45729,-1.83097 z m 88.246444,-17.6566 a 19.664566,19.664566 0 0 1 -12.46884,17.6566 l -26.8542,11.92574 a 26.567326,26.567326 0 0 1 -6.45716,1.83095 v -57.11395 a 26.622249,26.622249 0 0 0 6.48156,-1.83099 l 37.63855,-16.728834 a 17.442999,17.442999 0 0 1 1.65396,7.323784 z"
     style="fill:#ffffff;fill-opacity:1;stroke-width:13.5353;stroke-dasharray:none"
     inkscape:label="g1" /></svg>
