<?xml version="1.0" encoding="UTF-8" standalone="no"?>
<svg
   width="240"
   height="240"
   viewBox="0 0 240 240"
   fill="none"
   version="1.1"
   id="svg1"
   sodipodi:docname="logo.svg"
   inkscape:version="1.4.3 (fcd0343856, 2026-01-01)"
   xmlns:inkscape="http://www.inkscape.org/namespaces/inkscape"
   xmlns:sodipodi="http://sodipodi.sourceforge.net/DTD/sodipodi-0.dtd"
   xmlns="http://www.w3.org/2000/svg"
   xmlns:svg="http://www.w3.org/2000/svg"
   xmlns:rdf="http://www.w3.org/1999/02/22-rdf-syntax-ns#"
   xmlns:cc="http://creativecommons.org/ns#"
   xmlns:dc="http://purl.org/dc/elements/1.1/">
  <defs
     id="defs1" />
  <sodipodi:namedview
     id="namedview1"
     pagecolor="#ffffff"
     bordercolor="#000000"
     borderopacity="0.25"
     inkscape:showpageshadow="2"
     inkscape:pageopacity="0.0"
     inkscape:pagecheckerboard="0"
     inkscape:deskcolor="#d1d1d1"
     inkscape:zoom="1.6395833"
     inkscape:cx="81.728081"
     inkscape:cy="141.80432"
     inkscape:window-width="1920"
     inkscape:window-height="995"
     inkscape:window-x="0"
     inkscape:window-y="0"
     inkscape:window-maximized="1"
     inkscape:current-layer="svg1" />
  <metadata
     id="Namorix-Metadata-Block">
    <rdf:RDF>
      <cc:Work
         rdf:about="">
        <dc:date>2026</dc:date>
        <dc:creator>
          <cc:Agent>
            <dc:title>Nguyen Danh Nam</dc:title>
          </cc:Agent>
        </dc:creator>
        <dc:rights>
          <cc:Agent>
            <dc:title>Nguyen Danh Nam</dc:title>
          </cc:Agent>
        </dc:rights>
        <cc:license
           rdf:resource="https://creativecommons.org/licenses/by-nc-nd/4.0/" />
      </cc:Work>
    </rdf:RDF>
  </metadata>
  <g
     id="g1"
     transform="matrix(1.7394412,0,0,1.7394412,-85.61206,-88.73309)">
    <path
       id="nmx-i"
       d="M 72,86 C 72,79.9249 67.0751,75 61,75 54.9249,75 50,79.9249 50,86 v 68 c 0,6.075 4.9249,11 11,11 6.0751,0 11,-4.925 11,-11 z"
       fill="#007aff" />
    <path
       id="nmx-glyph-fixed-1"
       d="m 183.891,96.6655 c 4.296,-4.2958 4.296,-11.2606 0,-15.5564 -4.296,-4.2957 -11.261,-4.2957 -15.556,0 l -62.226,62.2259 c -4.296,4.295 -4.296,11.26 0,15.556 4.296,4.296 11.261,4.296 15.557,0 z"
       fill="#1c1c1e" />
    <path
       id="nmx-glyph-no-1"
       d="m 127.322,102.322 c 3.515,-3.5144 3.515,-9.2129 0,-12.7276 -3.514,-3.5147 -9.213,-3.5147 -12.728,0 -3.514,3.5147 -3.514,9.2132 0,12.7276 3.515,3.515 9.214,3.515 12.728,0 z"
       fill="#007aff" />
    <path
       id="nmx-glyph-no-2"
       d="m 143.586,118.586 c 3.515,-3.515 3.515,-9.213 0,-12.728 -3.515,-3.515 -9.213,-3.515 -12.728,0 -3.515,3.515 -3.515,9.213 0,12.728 3.515,3.515 9.213,3.515 12.728,0 z"
       fill="#007aff" />
    <path
       id="nmx-glyph-no-3"
       d="m 159.849,134.849 c 3.515,-3.514 3.515,-9.213 0,-12.728 -3.515,-3.514 -9.213,-3.514 -12.728,0 -3.514,3.515 -3.514,9.214 0,12.728 3.515,3.515 9.213,3.515 12.728,0 z"
       fill="#007aff" />
    <path
       id="nmx-glyph-no-4"
       d="m 176.113,151.113 c 3.515,-3.515 3.515,-9.214 0,-12.728 -3.515,-3.515 -9.213,-3.515 -12.728,0 -3.515,3.514 -3.515,9.213 0,12.728 3.515,3.514 9.213,3.514 12.728,0 z"
       fill="#007aff" />
  </g>
</svg>
